<svg xmlns="http://www.w3.org/2000/svg" viewBox="0 0 256 256" role="img" aria-labelledby="title desc">
  <title id="title">EasyCRM mark</title>
  <desc id="desc">Four-part circular EasyCRM symbol.</desc>
  <defs>
    <linearGradient id="arcBlue" x1="92" y1="44" x2="32" y2="132" gradientUnits="userSpaceOnUse">
      <stop offset="0" stop-color="#2587ff"/>
      <stop offset="1" stop-color="#0b63eb"/>
    </linearGradient>
    <linearGradient id="arcTeal" x1="166" y1="44" x2="222" y2="132" gradientUnits="userSpaceOnUse">
      <stop offset="0" stop-color="#12c6ad"/>
      <stop offset="1" stop-color="#09b99b"/>
    </linearGradient>
    <linearGradient id="arcGray" x1="222" y1="152" x2="154" y2="228" gradientUnits="userSpaceOnUse">
      <stop offset="0" stop-color="#d7e2ef"/>
      <stop offset="1" stop-color="#b4c5dd"/>
    </linearGradient>
    <linearGradient id="arcNavy" x1="34" y1="150" x2="102" y2="228" gradientUnits="userSpaceOnUse">
      <stop offset="0" stop-color="#0c1d57"/>
      <stop offset="1" stop-color="#122c6a"/>
    </linearGradient>
    <filter id="softShadow" x="-12%" y="-12%" width="124%" height="124%" color-interpolation-filters="sRGB">
      <feDropShadow dx="0" dy="8" stdDeviation="8" flood-color="#91a6c5" flood-opacity=".22"/>
    </filter>
  </defs>

  <g filter="url(#softShadow)">
    <path d="M112 36 A92 92 0 0 0 36 112" fill="none" stroke="url(#arcBlue)" stroke-width="30" stroke-linecap="round"/>
    <path d="M144 36 A92 92 0 0 1 220 112" fill="none" stroke="url(#arcTeal)" stroke-width="30" stroke-linecap="round"/>
    <path d="M220 144 A92 92 0 0 1 144 220" fill="none" stroke="url(#arcGray)" stroke-width="30" stroke-linecap="round"/>
    <path d="M36 144 A92 92 0 0 0 112 220" fill="none" stroke="url(#arcNavy)" stroke-width="30" stroke-linecap="round"/>

    <circle cx="94" cy="96" r="25" fill="#156ff5"/>
    <circle cx="162" cy="96" r="25" fill="#08bc9d"/>
    <circle cx="162" cy="160" r="25" fill="#c6d3e4"/>
    <circle cx="94" cy="160" r="25" fill="#102964"/>
  </g>
</svg>
